<svg id="Layer_1" data-name="Layer 1" xmlns="http://www.w3.org/2000/svg" viewBox="0 0 647.85 664.88"><defs><style>.cls-1{fill:#e6432e;}.cls-2{fill:#010101;}.cls-3{fill:#24b9d0;}</style></defs><path class="cls-1" d="M342.53,192c1.1-.13,1.67-.24,2.24-.26,17.27-.55,505.44-.2,510,.39a28.83,28.83,0,0,1,.34,3.16q-.08,61.68-.18,123.37c-.07,31.2-.27,62.4-.31,93.6q-.15,122.42-.22,244.82,0,17.52,0,35.05c0,1.42,0,2.84,0,4.18-1.67.72-2.2-.59-2.91-1.29Q835,678.82,818.65,662.59l-113.39-112q-36.88-36.43-73.79-72.84L479.81,328l-73.45-72.51q-29.89-29.51-59.78-59A21.7,21.7,0,0,1,342.53,192Z" transform="translate(-207.25 -191.41)"/><path class="cls-2" d="M208.56,261.47c0-23,0-45.67,0-68.27,4.18-.59,63.4-.77,71.73-.3L855,767.48v88.45a15,15,0,0,1-2.32.35q-30.72,0-61.43,0a12.07,12.07,0,0,1-1.35-.2Z" transform="translate(-207.25 -191.41)"/><path class="cls-3" d="M719.71,856.15H588.11c-.78-.69-1.51-1.31-2.2-2l-57.38-55.25-80.22-77.2-47.38-45.58L321.75,600,270.92,551q-29.24-28.1-58.5-56.17c-1.27-1.22-2.61-2.35-3.79-3.4V334.86c1.19-.6,1.66.21,2.17.73L295.39,422,336,463.53q43.8,44.78,87.59,89.54l42.28,43.23,86.24,88.17L594,727.36q43.29,44.25,86.57,88.51,17.63,18,35.22,36C716.92,853,717.93,854.2,719.71,856.15Z" transform="translate(-207.25 -191.41)"/><path class="cls-3" d="M514.82,855.44c-1,.53-1.21.79-1.46.79q-152.13,0-304.25,0a4.39,4.39,0,0,1-1.18-.31,2.48,2.48,0,0,1-.45-.48,1.15,1.15,0,0,1-.11-.46c-.05-1.12-.13-2.23-.12-3.35q.24-67.9.51-135.81.36-77,.78-153.75c1.19-.81,1.75-.07,2.29.44q5.4,5.12,10.77,10.26,23.13,22.32,46.25,44.68,27.11,26.14,54.24,52.28L372.19,718l55.63,53.61Q453.4,796.29,479,820.92q15.39,14.82,30.81,29.58C511.37,852,513,853.6,514.82,855.44Z" transform="translate(-207.25 -191.41)"/></svg>